<svg width="302.967" height="302.967" xmlns="http://www.w3.org/2000/svg">

 <g>
  <title>background</title>
  <rect fill="#2aabe2" id="canvas_background" height="304.967" width="304.967" y="-1" x="-1"/>
 </g>
 <g>
  <title>Layer 1</title>
  <g id="svg_1">
   <g id="svg_2">
    <g id="svg_3">
     <path id="svg_4" fill="#010002" d="m151.483,302.967c-83.527,0 -151.483,-67.95 -151.483,-151.484s67.956,-151.483 151.483,-151.483s151.483,67.956 151.483,151.483s-67.949,151.484 -151.483,151.484zm0,-278.551c-70.066,0 -127.067,57.001 -127.067,127.067s57.001,127.067 127.067,127.067s127.067,-57.001 127.067,-127.067s-56.995,-127.067 -127.067,-127.067z"/>
    </g>
    <g id="svg_5">
     <g id="svg_6">
      <path id="svg_7" fill="#010002" d="m116.586,118.12c1.795,-4.607 4.297,-8.588 7.511,-11.961c3.225,-3.389 7.114,-6.016 11.667,-7.898c4.547,-1.904 9.633,-2.845 15.262,-2.845c7.261,0 13.32,0.995 18.183,2.997c4.857,1.996 8.768,4.482 11.738,7.441c2.964,2.97 5.091,6.168 6.369,9.584c1.273,3.432 1.915,6.636 1.915,9.595c0,4.901 -0.642,8.947 -1.915,12.118c-1.278,3.171 -2.866,5.88 -4.759,8.131c-1.898,2.252 -3.987,4.172 -6.293,5.755c-2.295,1.588 -4.471,3.171 -6.516,4.759c-2.045,1.583 -3.862,3.394 -5.445,5.439c-1.588,2.04 -2.589,4.601 -2.991,7.664l0,5.831l-20.712,0l0,-6.908c0.305,-4.395 1.153,-8.072 2.529,-11.036c1.382,-2.964 2.991,-5.499 4.83,-7.598c1.844,-2.089 3.786,-3.911 5.836,-5.445c2.04,-1.539 3.927,-3.073 5.673,-4.591c1.73,-1.545 3.144,-3.225 4.221,-5.069c1.071,-1.833 1.556,-4.15 1.452,-6.908c0,-4.705 -1.148,-8.18 -3.454,-10.427c-2.295,-2.257 -5.493,-3.378 -9.589,-3.378c-2.758,0 -5.134,0.533 -7.131,1.605s-3.628,2.513 -4.911,4.302c-1.278,1.795 -2.225,3.894 -2.834,6.288c-0.615,2.415 -0.919,4.982 -0.919,7.756l-22.55,0c0.097,-5.536 1.038,-10.589 2.833,-15.201zm45.95,65.818l0,23.616l-24.09,0l0,-23.616l24.09,0z"/>
     </g>
    </g>
   </g>
  </g>
  <g id="svg_8"/>
  <g id="svg_9"/>
  <g id="svg_10"/>
  <g id="svg_11"/>
  <g id="svg_12"/>
  <g id="svg_13"/>
  <g id="svg_14"/>
  <g id="svg_15"/>
  <g id="svg_16"/>
  <g id="svg_17"/>
  <g id="svg_18"/>
  <g id="svg_19"/>
  <g id="svg_20"/>
  <g id="svg_21"/>
  <g id="svg_22"/>
 </g>
</svg>